<svg width="25" height="25" viewBox="0 0 25 25" fill="none" xmlns="http://www.w3.org/2000/svg">
<path d="M20.7451 3.24658H5.13574C4.64355 3.24658 4.22168 3.42236 3.87012 3.77393C3.51855 4.12549 3.34277 4.55127 3.34277 5.05127V20.6489C3.34277 21.1489 3.51855 21.5747 3.87012 21.9263C4.22168 22.2778 4.64355 22.4536 5.13574 22.4536H20.7451C21.2373 22.4536 21.6592 22.2778 22.0107 21.9263C22.3623 21.5747 22.5381 21.1489 22.5381 20.6489V5.05127C22.5381 4.55127 22.3623 4.12549 22.0107 3.77393C21.6592 3.42236 21.2373 3.24658 20.7451 3.24658ZM21.3428 5.05127V9.24658H16.5381V4.45361H20.7451C20.9092 4.45361 21.0498 4.51221 21.167 4.62939C21.2842 4.74658 21.3428 4.88721 21.3428 5.05127ZM10.5381 15.2466V10.4536H15.3428V15.2466H10.5381ZM15.3428 16.4536V21.2466H10.5381V16.4536H15.3428ZM9.34277 15.2466H4.53809V10.4536H9.34277V15.2466ZM10.5381 9.24658V4.45361H15.3428V9.24658H10.5381ZM16.5381 10.4536H21.3428V15.2466H16.5381V10.4536ZM5.13574 4.45361H9.34277V9.24658H4.53809V5.05127C4.53809 4.88721 4.59668 4.74658 4.71387 4.62939C4.83105 4.51221 4.97168 4.45361 5.13574 4.45361ZM4.53809 20.6489V16.4536H9.34277V21.2466H5.13574C4.97168 21.2466 4.83105 21.188 4.71387 21.0708C4.59668 20.9536 4.53809 20.813 4.53809 20.6489ZM20.7451 21.2466H16.5381V16.4536H21.3428V20.6489C21.3428 20.813 21.2842 20.9536 21.167 21.0708C21.0498 21.188 20.9092 21.2466 20.7451 21.2466Z" fill="black"/>
</svg>
