<svg width="30" height="30" viewBox="0 0 30 30" fill="none" xmlns="http://www.w3.org/2000/svg">
<path d="M29.9174 28.5193L28.4169 7.67293C28.4072 7.47869 28.3319 7.31359 28.1911 7.17763C28.0503 7.04167 27.8779 6.97368 27.674 6.97368H24.2651L18.5109 1.23403C18.3652 1.08835 18.1904 1.01551 17.9865 1.01551C17.7825 1.01551 17.6077 1.08835 17.462 1.23403L16.7045 1.97698C16.5588 2.12265 16.486 2.29746 16.486 2.50141C16.486 2.70536 16.5588 2.88017 16.7045 3.02585C16.8502 3.17152 17.0274 3.24436 17.2362 3.24436C17.445 3.24436 17.6223 3.17152 17.768 3.02585L17.9865 2.80733L22.1528 6.97368H19.7783L13.2957 0.491076C13.15 0.345398 12.9728 0.27256 12.764 0.27256C12.5552 0.27256 12.3779 0.345398 12.2323 0.491076L5.73508 6.97368H2.32625C2.1223 6.97368 1.94992 7.04167 1.80909 7.17763C1.66827 7.31359 1.59301 7.47869 1.5833 7.67293L0.0828271 28.563C0.0731153 28.6601 0.085255 28.7572 0.119246 28.8543C0.153237 28.9514 0.20908 29.0388 0.286774 29.1165C0.354757 29.1942 0.437307 29.2525 0.534425 29.2913C0.631542 29.3302 0.72866 29.3496 0.825778 29.3496H29.1744C29.3784 29.3496 29.5532 29.2768 29.6989 29.1311C29.8446 28.9854 29.9174 28.8106 29.9174 28.6067C29.9174 28.5969 29.9174 28.5824 29.9174 28.563C29.9174 28.5435 29.9174 28.529 29.9174 28.5193ZM12.7567 2.06438L17.6806 6.97368H7.84739L12.7567 2.06438ZM1.627 27.8637L3.01093 8.47415H6.05557H26.9893L28.3732 27.8637H1.627ZM15.0001 20.4051C14.5922 20.4051 14.1916 20.3492 13.7983 20.2375C13.405 20.1259 13.0262 19.9656 12.662 19.7568C12.2978 19.548 11.9506 19.2882 11.6204 18.9774C11.2902 18.6667 10.9843 18.3073 10.7027 17.8994C10.4307 17.5207 10.1904 17.1103 9.98155 16.6685C9.77275 16.2266 9.59794 15.7653 9.45712 15.2845C9.3163 14.8038 9.20947 14.3036 9.13663 13.7841C9.06379 13.2645 9.02737 12.7376 9.02737 12.2035C9.02737 11.9995 9.10021 11.8247 9.24589 11.679C9.39156 11.5334 9.57123 11.4605 9.78489 11.4605C9.98884 11.4605 10.1636 11.5334 10.3093 11.679C10.455 11.8247 10.5278 11.9995 10.5278 12.2035C10.5278 12.6599 10.557 13.1091 10.6152 13.551C10.6735 13.9929 10.7634 14.4202 10.8847 14.8329C11.0061 15.2457 11.1518 15.6366 11.3218 16.0056C11.4917 16.3747 11.6933 16.7194 11.9263 17.0399C12.3439 17.6421 12.8174 18.1058 13.3467 18.4311C13.876 18.7565 14.4271 18.9192 15.0001 18.9192C15.5731 18.9192 16.1242 18.7565 16.6535 18.4311C17.1828 18.1058 17.6563 17.6421 18.0739 17.0399C18.307 16.7194 18.5085 16.3747 18.6784 16.0056C18.8484 15.6366 18.9941 15.2457 19.1155 14.8329C19.2369 14.4202 19.3267 13.9929 19.385 13.551C19.4432 13.1091 19.4724 12.6599 19.4724 12.2035C19.4724 11.9995 19.5452 11.8247 19.6909 11.679C19.8366 11.5334 20.0114 11.4605 20.2153 11.4605C20.429 11.4605 20.6087 11.5334 20.7543 11.679C20.9 11.8247 20.9729 11.9995 20.9729 12.2035C20.9729 12.7376 20.9364 13.2645 20.8636 13.7841C20.7908 14.3036 20.6839 14.8038 20.5431 15.2845C20.4023 15.7653 20.2275 16.2266 20.0187 16.6685C19.8099 17.1103 19.5695 17.5207 19.2976 17.8994C19.0159 18.3073 18.71 18.6667 18.3798 18.9774C18.0496 19.2882 17.7024 19.548 17.3382 19.7568C16.974 19.9656 16.5953 20.1259 16.2019 20.2375C15.8086 20.3492 15.408 20.4051 15.0001 20.4051Z" fill="black"/>
</svg>
