<svg width="12" height="13" viewBox="0 0 12 13" fill="none" xmlns="http://www.w3.org/2000/svg">
<path d="M0 4.38363C0 4.34454 0.00683594 4.30642 0.0205078 4.26928C0.0341797 4.23214 0.0566406 4.19989 0.0878906 4.17252C0.146484 4.11388 0.216797 4.08456 0.298828 4.08456C0.380859 4.08456 0.451172 4.11388 0.509766 4.17252L5.70117 9.36227L10.8867 4.17252C10.9453 4.11388 11.0166 4.08456 11.1006 4.08456C11.1846 4.08456 11.2559 4.11388 11.3145 4.17252C11.373 4.23116 11.4023 4.30153 11.4023 4.38363C11.4023 4.46573 11.373 4.5361 11.3145 4.59474L5.91211 10.0015C5.85352 10.0601 5.7832 10.0894 5.70117 10.0894C5.61914 10.0894 5.54883 10.0601 5.49023 10.0015L0.0878906 4.59474C0.0566406 4.56737 0.0341797 4.53512 0.0205078 4.49798C0.00683594 4.46084 0 4.42273 0 4.38363Z" fill="black"/>
</svg>
