<svg width="21" height="20" viewBox="0 0 21 20" fill="none" xmlns="http://www.w3.org/2000/svg">
<path d="M3.12124 19.8126C2.98692 19.8126 2.87178 19.7646 2.77584 19.6686C2.67989 19.5727 2.63192 19.4576 2.63192 19.3232V11.4653C2.63192 11.331 2.67989 11.2159 2.77584 11.1199C2.87178 11.024 2.98692 10.976 3.12124 10.976C3.25556 10.976 3.3707 11.024 3.46664 11.1199C3.56259 11.2159 3.61056 11.331 3.61056 11.4653V19.3232C3.61056 19.4576 3.56259 19.5727 3.46664 19.6686C3.3707 19.7646 3.25556 19.8126 3.12124 19.8126ZM3.12124 6.0636C2.98692 6.0636 2.87178 6.01563 2.77584 5.91968C2.67989 5.82374 2.63192 5.7086 2.63192 5.57428V0.66188C2.63192 0.521162 2.67989 0.402828 2.77584 0.306883C2.87178 0.210938 2.98692 0.162966 3.12124 0.162966C3.25556 0.162966 3.3707 0.210938 3.46664 0.306883C3.56259 0.402828 3.61056 0.521162 3.61056 0.66188V5.57428C3.61056 5.7086 3.56259 5.82374 3.46664 5.91968C3.3707 6.01563 3.25556 6.0636 3.12124 6.0636ZM4.09988 9.98776H2.1426C1.73323 9.98776 1.38463 9.84385 1.09679 9.55601C0.808957 9.26817 0.665039 8.92277 0.665039 8.5198C0.665039 8.11043 0.808957 7.76183 1.09679 7.474C1.38463 7.18616 1.73323 7.04224 2.1426 7.04224H4.09988C4.50925 7.04224 4.85785 7.18616 5.14568 7.474C5.43352 7.76183 5.57744 8.11043 5.57744 8.5198C5.57744 8.92277 5.43352 9.26817 5.14568 9.55601C4.85785 9.84385 4.50925 9.98776 4.09988 9.98776ZM2.1426 8.03048C2.00188 8.03048 1.88354 8.07845 1.7876 8.1744C1.69165 8.27034 1.64368 8.38548 1.64368 8.5198C1.64368 8.65412 1.69165 8.76926 1.7876 8.8652C1.88354 8.96115 2.00188 9.00912 2.1426 9.00912H4.09988C4.2406 9.00912 4.35893 8.96115 4.45488 8.8652C4.55082 8.76926 4.5988 8.65412 4.5988 8.5198C4.5988 8.38548 4.55082 8.27034 4.45488 8.1744C4.35893 8.07845 4.2406 8.03048 4.09988 8.03048H2.1426ZM10.0005 19.8126C9.86619 19.8126 9.75106 19.7646 9.65511 19.6686C9.55917 19.5727 9.5112 19.4576 9.5112 19.3232V15.3991C9.5112 15.2584 9.55917 15.14 9.65511 15.0441C9.75106 14.9481 9.86619 14.9002 10.0005 14.9002C10.1348 14.9002 10.25 14.9481 10.3459 15.0441C10.4419 15.14 10.4898 15.2584 10.4898 15.3991V19.3232C10.4898 19.4576 10.4419 19.5727 10.3459 19.6686C10.25 19.7646 10.1348 19.8126 10.0005 19.8126ZM10.0005 9.98776C9.86619 9.98776 9.75106 9.93979 9.65511 9.84385C9.55917 9.7479 9.5112 9.63277 9.5112 9.49844V0.66188C9.5112 0.521162 9.55917 0.402828 9.65511 0.306883C9.75106 0.210938 9.86619 0.162966 10.0005 0.162966C10.1348 0.162966 10.25 0.210938 10.3459 0.306883C10.4419 0.402828 10.4898 0.521162 10.4898 0.66188V9.49844C10.4898 9.63277 10.4419 9.7479 10.3459 9.84385C10.25 9.93979 10.1348 9.98776 10.0005 9.98776ZM10.9792 13.9215H9.01228C8.60931 13.9215 8.26391 13.7776 7.97607 13.4898C7.68823 13.2019 7.54432 12.8533 7.54432 12.444C7.54432 12.041 7.68823 11.6956 7.97607 11.4078C8.26391 11.1199 8.60931 10.976 9.01228 10.976H10.9792C11.3885 10.976 11.7371 11.1199 12.025 11.4078C12.3128 11.6956 12.4567 12.041 12.4567 12.444C12.4567 12.8533 12.3128 13.2019 12.025 13.4898C11.7371 13.7776 11.3885 13.9215 10.9792 13.9215ZM9.01228 11.9546C8.87796 11.9546 8.76282 12.0026 8.66688 12.0986C8.57093 12.1945 8.52296 12.3096 8.52296 12.444C8.52296 12.5847 8.57093 12.703 8.66688 12.799C8.76282 12.8949 8.87796 12.9429 9.01228 12.9429H10.9792C11.1135 12.9429 11.2286 12.8949 11.3246 12.799C11.4205 12.703 11.4685 12.5847 11.4685 12.444C11.4685 12.3096 11.4205 12.1945 11.3246 12.0986C11.2286 12.0026 11.1135 11.9546 10.9792 11.9546H9.01228ZM16.8798 19.8126C16.7391 19.8126 16.6207 19.7646 16.5248 19.6686C16.4289 19.5727 16.3809 19.4576 16.3809 19.3232V9.49844C16.3809 9.36412 16.4289 9.24898 16.5248 9.15304C16.6207 9.05709 16.7391 9.00912 16.8798 9.00912C17.0141 9.00912 17.1293 9.05709 17.2252 9.15304C17.3211 9.24898 17.3691 9.36412 17.3691 9.49844V19.3232C17.3691 19.4576 17.3211 19.5727 17.2252 19.6686C17.1293 19.7646 17.0141 19.8126 16.8798 19.8126ZM16.8798 4.09672C16.7391 4.09672 16.6207 4.04875 16.5248 3.9528C16.4289 3.85686 16.3809 3.74173 16.3809 3.6074V0.66188C16.3809 0.521162 16.4289 0.402828 16.5248 0.306883C16.6207 0.210938 16.7391 0.162966 16.8798 0.162966C17.0141 0.162966 17.1293 0.210938 17.2252 0.306883C17.3211 0.402828 17.3691 0.521162 17.3691 0.66188V3.6074C17.3691 3.74173 17.3211 3.85686 17.2252 3.9528C17.1293 4.04875 17.0141 4.09672 16.8798 4.09672ZM17.8584 8.03048H15.8916C15.4886 8.03048 15.1432 7.88656 14.8553 7.59873C14.5675 7.31089 14.4236 6.96229 14.4236 6.55292C14.4236 6.14356 14.5675 5.79495 14.8553 5.50712C15.1432 5.21928 15.4886 5.07537 15.8916 5.07537H17.8584C18.2678 5.07537 18.6164 5.21928 18.9042 5.50712C19.1921 5.79495 19.336 6.14356 19.336 6.55292C19.336 6.96229 19.1921 7.31089 18.9042 7.59873C18.6164 7.88656 18.2678 8.03048 17.8584 8.03048ZM15.8916 6.0636C15.7572 6.0636 15.6421 6.11157 15.5462 6.20752C15.4502 6.30346 15.4022 6.4186 15.4022 6.55292C15.4022 6.68725 15.4502 6.80238 15.5462 6.89832C15.6421 6.99427 15.7572 7.04224 15.8916 7.04224H17.8584C17.9928 7.04224 18.1079 6.99427 18.2038 6.89832C18.2998 6.80238 18.3478 6.68725 18.3478 6.55292C18.3478 6.4186 18.2998 6.30346 18.2038 6.20752C18.1079 6.11157 17.9928 6.0636 17.8584 6.0636H15.8916Z" fill="black"/>
</svg>
