<svg width="17" height="17" viewBox="0 0 16 17" fill="none" xmlns="http://www.w3.org/2000/svg">
<path d="M8.5625 8.53223L15.4844 1.61035C15.5625 1.53223 15.6016 1.43848 15.6016 1.3291C15.6016 1.21973 15.5625 1.12598 15.4844 1.04785C15.4062 0.969727 15.3112 0.930664 15.1992 0.930664C15.0872 0.930664 14.9922 0.969727 14.9141 1.04785L8 7.96191L1.08594 1.04785C1.00781 0.969727 0.91276 0.930664 0.800781 0.930664C0.688802 0.930664 0.59375 0.969727 0.515625 1.04785C0.4375 1.12598 0.398438 1.21973 0.398438 1.3291C0.398438 1.43848 0.4375 1.53223 0.515625 1.61035L7.4375 8.53223L0.515625 15.4463C0.4375 15.5244 0.398438 15.6182 0.398438 15.7275C0.398438 15.8369 0.4375 15.9307 0.515625 16.0088C0.557292 16.0505 0.602865 16.0804 0.652344 16.0986C0.701823 16.1169 0.75 16.126 0.796875 16.126C0.848958 16.126 0.89974 16.1169 0.949219 16.0986C0.998698 16.0804 1.04427 16.0505 1.08594 16.0088L8 9.09473L14.9141 16.0088C14.9557 16.0505 15.0013 16.0804 15.0508 16.0986C15.1003 16.1169 15.151 16.126 15.2031 16.126C15.25 16.126 15.2982 16.1169 15.3477 16.0986C15.3971 16.0804 15.4427 16.0505 15.4844 16.0088C15.5625 15.9307 15.6016 15.8369 15.6016 15.7275C15.6016 15.6182 15.5625 15.5244 15.4844 15.4463L8.5625 8.53223Z" fill="black"/>
</svg>
