<svg width="20" height="20" viewBox="0 0 100 100" fill="none" xmlns="http://www.w3.org/2000/svg">
<path d="M100 50C100 50 81.25 15.625 50 15.625C18.75 15.625 0 50 0 50C0 50 18.75 84.375 50 84.375C81.25 84.375 100 50 100 50ZM7.33125 50C10.3486 45.4037 13.8248 41.1255 17.7062 37.2312C25.75 29.175 36.75 21.875 50 21.875C63.25 21.875 74.2438 29.175 82.3 37.2312C86.1815 41.1255 89.6576 45.4037 92.675 50C92.3167 50.5417 91.9104 51.1417 91.4563 51.8C89.3625 54.8 86.2688 58.8 82.3 62.7688C74.2438 70.825 63.2437 78.125 50 78.125C36.7563 78.125 25.7563 70.825 17.7 62.7688C13.8185 58.8745 10.3486 54.5963 7.33125 50Z" fill="black"/>
<path d="M50 34.375C45.856 34.375 41.8817 36.0212 38.9515 38.9515C36.0212 41.8817 34.375 45.856 34.375 50C34.375 54.144 36.0212 58.1183 38.9515 61.0485C41.8817 63.9788 45.856 65.625 50 65.625C54.144 65.625 58.1183 63.9788 61.0485 61.0485C63.9788 58.1183 65.625 54.144 65.625 50C65.625 45.856 63.9788 41.8817 61.0485 38.9515C58.1183 36.0212 54.144 34.375 50 34.375ZM28.125 50C28.125 44.1984 30.4297 38.6344 34.532 34.532C38.6344 30.4297 44.1984 28.125 50 28.125C55.8016 28.125 61.3656 30.4297 65.468 34.532C69.5703 38.6344 71.875 44.1984 71.875 50C71.875 55.8016 69.5703 61.3656 65.468 65.468C61.3656 69.5703 55.8016 71.875 50 71.875C44.1984 71.875 38.6344 69.5703 34.532 65.468C30.4297 61.3656 28.125 55.8016 28.125 50Z" fill="black"/>
</svg>
