<svg width="25" height="25" viewBox="0 0 25 25" fill="none" xmlns="http://www.w3.org/2000/svg">
<path d="M23.1357 9.24658H8.74512C8.24512 9.24658 7.81934 9.0708 7.46777 8.71924C7.11621 8.36768 6.94043 7.9458 6.94043 7.45361C6.94043 6.95361 7.11621 6.52783 7.46777 6.17627C7.81934 5.82471 8.24512 5.64893 8.74512 5.64893H23.1357C23.6357 5.64893 24.0615 5.82471 24.4131 6.17627C24.7646 6.52783 24.9404 6.95361 24.9404 7.45361C24.9404 7.9458 24.7646 8.36768 24.4131 8.71924C24.0615 9.0708 23.6357 9.24658 23.1357 9.24658ZM8.74512 6.84424C8.57324 6.84424 8.42871 6.90283 8.31152 7.02002C8.19434 7.13721 8.13574 7.28174 8.13574 7.45361C8.13574 7.61768 8.19434 7.7583 8.31152 7.87549C8.42871 7.99268 8.57324 8.05127 8.74512 8.05127H23.1357C23.3076 8.05127 23.4521 7.99268 23.5693 7.87549C23.6865 7.7583 23.7451 7.61768 23.7451 7.45361C23.7451 7.28174 23.6865 7.13721 23.5693 7.02002C23.4521 6.90283 23.3076 6.84424 23.1357 6.84424H8.74512ZM23.1357 15.2466H8.74512C8.24512 15.2466 7.81934 15.0708 7.46777 14.7192C7.11621 14.3677 6.94043 13.9458 6.94043 13.4536C6.94043 12.9536 7.11621 12.5278 7.46777 12.1763C7.81934 11.8247 8.24512 11.6489 8.74512 11.6489H23.1357C23.6357 11.6489 24.0615 11.8247 24.4131 12.1763C24.7646 12.5278 24.9404 12.9536 24.9404 13.4536C24.9404 13.9458 24.7646 14.3677 24.4131 14.7192C24.0615 15.0708 23.6357 15.2466 23.1357 15.2466ZM8.74512 12.8442C8.57324 12.8442 8.42871 12.9028 8.31152 13.02C8.19434 13.1372 8.13574 13.2817 8.13574 13.4536C8.13574 13.6177 8.19434 13.7583 8.31152 13.8755C8.42871 13.9927 8.57324 14.0513 8.74512 14.0513H23.1357C23.3076 14.0513 23.4521 13.9927 23.5693 13.8755C23.6865 13.7583 23.7451 13.6177 23.7451 13.4536C23.7451 13.2817 23.6865 13.1372 23.5693 13.02C23.4521 12.9028 23.3076 12.8442 23.1357 12.8442H8.74512ZM23.1357 21.2466H8.74512C8.24512 21.2466 7.81934 21.0708 7.46777 20.7192C7.11621 20.3677 6.94043 19.9458 6.94043 19.4536C6.94043 18.9536 7.11621 18.5278 7.46777 18.1763C7.81934 17.8247 8.24512 17.6489 8.74512 17.6489H23.1357C23.6357 17.6489 24.0615 17.8247 24.4131 18.1763C24.7646 18.5278 24.9404 18.9536 24.9404 19.4536C24.9404 19.9458 24.7646 20.3677 24.4131 20.7192C24.0615 21.0708 23.6357 21.2466 23.1357 21.2466ZM8.74512 18.8442C8.57324 18.8442 8.42871 18.9028 8.31152 19.02C8.19434 19.1372 8.13574 19.2817 8.13574 19.4536C8.13574 19.6177 8.19434 19.7583 8.31152 19.8755C8.42871 19.9927 8.57324 20.0513 8.74512 20.0513H23.1357C23.3076 20.0513 23.4521 19.9927 23.5693 19.8755C23.6865 19.7583 23.7451 19.6177 23.7451 19.4536C23.7451 19.2817 23.6865 19.1372 23.5693 19.02C23.4521 18.9028 23.3076 18.8442 23.1357 18.8442H8.74512ZM2.74512 9.24658C2.24512 9.24658 1.81934 9.0708 1.46777 8.71924C1.11621 8.36768 0.94043 7.9458 0.94043 7.45361C0.94043 6.95361 1.11621 6.52783 1.46777 6.17627C1.81934 5.82471 2.24512 5.64893 2.74512 5.64893C3.2373 5.64893 3.65918 5.82471 4.01074 6.17627C4.3623 6.52783 4.53809 6.95361 4.53809 7.45361C4.53809 7.9458 4.3623 8.36768 4.01074 8.71924C3.65918 9.0708 3.2373 9.24658 2.74512 9.24658ZM2.74512 6.84424C2.57324 6.84424 2.42871 6.90283 2.31152 7.02002C2.19434 7.13721 2.13574 7.28174 2.13574 7.45361C2.13574 7.61768 2.19434 7.7583 2.31152 7.87549C2.42871 7.99268 2.57324 8.05127 2.74512 8.05127C2.90918 8.05127 3.0498 7.99268 3.16699 7.87549C3.28418 7.7583 3.34277 7.61768 3.34277 7.45361C3.34277 7.28174 3.28418 7.13721 3.16699 7.02002C3.0498 6.90283 2.90918 6.84424 2.74512 6.84424ZM2.74512 15.2466C2.24512 15.2466 1.81934 15.0708 1.46777 14.7192C1.11621 14.3677 0.94043 13.9458 0.94043 13.4536C0.94043 12.9536 1.11621 12.5278 1.46777 12.1763C1.81934 11.8247 2.24512 11.6489 2.74512 11.6489C3.2373 11.6489 3.65918 11.8247 4.01074 12.1763C4.3623 12.5278 4.53809 12.9536 4.53809 13.4536C4.53809 13.9458 4.3623 14.3677 4.01074 14.7192C3.65918 15.0708 3.2373 15.2466 2.74512 15.2466ZM2.74512 12.8442C2.57324 12.8442 2.42871 12.9028 2.31152 13.02C2.19434 13.1372 2.13574 13.2817 2.13574 13.4536C2.13574 13.6177 2.19434 13.7583 2.31152 13.8755C2.42871 13.9927 2.57324 14.0513 2.74512 14.0513C2.90918 14.0513 3.0498 13.9927 3.16699 13.8755C3.28418 13.7583 3.34277 13.6177 3.34277 13.4536C3.34277 13.2817 3.28418 13.1372 3.16699 13.02C3.0498 12.9028 2.90918 12.8442 2.74512 12.8442ZM2.74512 21.2466C2.24512 21.2466 1.81934 21.0708 1.46777 20.7192C1.11621 20.3677 0.94043 19.9458 0.94043 19.4536C0.94043 18.9536 1.11621 18.5278 1.46777 18.1763C1.81934 17.8247 2.24512 17.6489 2.74512 17.6489C3.2373 17.6489 3.65918 17.8247 4.01074 18.1763C4.3623 18.5278 4.53809 18.9536 4.53809 19.4536C4.53809 19.9458 4.3623 20.3677 4.01074 20.7192C3.65918 21.0708 3.2373 21.2466 2.74512 21.2466ZM2.74512 18.8442C2.57324 18.8442 2.42871 18.9028 2.31152 19.02C2.19434 19.1372 2.13574 19.2817 2.13574 19.4536C2.13574 19.6177 2.19434 19.7583 2.31152 19.8755C2.42871 19.9927 2.57324 20.0513 2.74512 20.0513C2.90918 20.0513 3.0498 19.9927 3.16699 19.8755C3.28418 19.7583 3.34277 19.6177 3.34277 19.4536C3.34277 19.2817 3.28418 19.1372 3.16699 19.02C3.0498 18.9028 2.90918 18.8442 2.74512 18.8442Z" fill="#999999"/>
</svg>
