<svg width="15" height="14" viewBox="0 0 15 14" fill="none" xmlns="http://www.w3.org/2000/svg">
<path d="M1.39016 7.85795H6.60958V13.0774C6.60958 13.2948 6.67948 13.4735 6.81929 13.6133C6.95909 13.7531 7.13773 13.823 7.35521 13.823C7.57269 13.823 7.75133 13.7531 7.89113 13.6133C8.03094 13.4735 8.10084 13.2948 8.10084 13.0774V7.85795H13.3203C13.5377 7.85795 13.7164 7.78805 13.8562 7.64824C13.996 7.50844 14.0659 7.32979 14.0659 7.11232C14.0659 6.89484 13.996 6.7162 13.8562 6.5764C13.7164 6.43659 13.5377 6.36669 13.3203 6.36669H8.10084V1.14727C8.10084 0.929794 8.03094 0.751154 7.89113 0.611348C7.75133 0.471542 7.57269 0.401639 7.35521 0.401639C7.13773 0.401639 6.95909 0.471542 6.81929 0.611348C6.67948 0.751154 6.60958 0.929794 6.60958 1.14727V6.36669H1.39016C1.17269 6.36669 0.994046 6.43659 0.85424 6.5764C0.714434 6.7162 0.644531 6.89484 0.644531 7.11232C0.644531 7.32979 0.714434 7.50844 0.85424 7.64824C0.994046 7.78805 1.17269 7.85795 1.39016 7.85795Z" fill="#999999"/>
</svg>
