<svg width="29" height="31" viewBox="0 0 29 31" fill="none" xmlns="http://www.w3.org/2000/svg">
<path d="M14.2573 16.6428C13.1211 16.6428 12.0552 16.4267 11.0597 15.9945C10.0643 15.5623 9.19508 14.9748 8.45213 14.2318C7.70918 13.4889 7.12404 12.6197 6.69673 11.6242C6.26941 10.6287 6.05575 9.56773 6.05575 8.44116C6.05575 7.30489 6.26941 6.23902 6.69673 5.24356C7.12404 4.2481 7.70918 3.3789 8.45213 2.63595C9.19508 1.893 10.0643 1.30544 11.0597 0.873262C12.0552 0.44109 13.1211 0.225002 14.2573 0.225002C15.3839 0.225002 16.4449 0.44109 17.4404 0.873262C18.4358 1.30544 19.305 1.893 20.048 2.63595C20.7909 3.3789 21.3785 4.2481 21.8107 5.24356C22.2428 6.23902 22.4589 7.30489 22.4589 8.44116C22.4589 9.56773 22.2428 10.6287 21.8107 11.6242C21.3785 12.6197 20.7909 13.4889 20.048 14.2318C19.305 14.9748 18.4358 15.5623 17.4404 15.9945C16.4449 16.4267 15.3839 16.6428 14.2573 16.6428ZM14.2573 1.72547C13.3347 1.72547 12.4655 1.90028 11.6497 2.24991C10.8339 2.59953 10.1226 3.07784 9.51557 3.68482C8.90858 4.29181 8.42785 5.00319 8.07337 5.81898C7.71889 6.63477 7.54165 7.50883 7.54165 8.44116C7.54165 9.36378 7.71889 10.233 8.07337 11.0488C8.42785 11.8646 8.90858 12.576 9.51557 13.1829C10.1226 13.7899 10.8339 14.2682 11.6497 14.6179C12.4655 14.9675 13.3347 15.1423 14.2573 15.1423C15.18 15.1423 16.0492 14.9675 16.865 14.6179C17.6807 14.2682 18.3921 13.7899 18.9991 13.1829C19.6061 12.576 20.0868 11.8646 20.4413 11.0488C20.7958 10.233 20.973 9.36378 20.973 8.44116C20.973 7.50883 20.7958 6.63477 20.4413 5.81898C20.0868 5.00319 19.6061 4.29181 18.9991 3.68482C18.3921 3.07784 17.6807 2.59953 16.865 2.24991C16.0492 1.90028 15.18 1.72547 14.2573 1.72547ZM26.1883 30.0596H2.32643C1.70487 30.0596 1.17558 29.8411 0.738553 29.404C0.301523 28.967 0.0830078 28.4426 0.0830078 27.8307C0.0830078 27.8016 0.0927196 27.6413 0.112143 27.35C0.131567 27.0586 0.199549 26.6847 0.31609 26.2283C0.432632 25.7718 0.614727 25.2547 0.862378 24.6768C1.11003 24.099 1.45722 23.509 1.90397 22.9068C2.17589 22.5572 2.46725 22.2246 2.77802 21.909C3.0888 21.5933 3.42143 21.2971 3.77591 21.0203C4.13039 20.7436 4.50915 20.4862 4.91219 20.2483C5.31523 20.0103 5.74012 19.7942 6.18686 19.6C6.73072 19.3572 7.30857 19.1435 7.92041 18.959C8.53225 18.7745 9.17566 18.6215 9.85062 18.5001C10.5256 18.3787 11.2297 18.2865 11.9629 18.2233C12.6962 18.1602 13.461 18.1287 14.2573 18.1287C15.044 18.1287 15.8064 18.1602 16.5445 18.2233C17.2826 18.2865 17.9867 18.3787 18.6568 18.5001C19.3269 18.6215 19.9679 18.7745 20.5797 18.959C21.1915 19.1435 21.7694 19.3572 22.3133 19.6C22.76 19.7942 23.1849 20.0103 23.5879 20.2483C23.991 20.4862 24.3722 20.7436 24.7315 21.0203C25.0908 21.2971 25.4259 21.5933 25.7367 21.909C26.0474 22.2246 26.3339 22.5572 26.5961 22.9068C27.0526 23.509 27.4022 24.099 27.645 24.6768C27.8878 25.2547 28.0675 25.7718 28.184 26.2283C28.3006 26.6847 28.371 27.0586 28.3953 27.35C28.4195 27.6413 28.4317 27.8016 28.4317 27.8307C28.4317 28.4426 28.2132 28.967 27.7761 29.404C27.3391 29.8411 26.8098 30.0596 26.1883 30.0596ZM14.2573 19.6291C12.956 19.6291 11.742 19.7165 10.6154 19.8913C9.48886 20.0662 8.45941 20.3259 7.52708 20.6707C6.59475 21.0155 5.76197 21.4452 5.02873 21.96C4.29549 22.4747 3.67151 23.0671 3.15678 23.7372C2.76831 24.2422 2.46725 24.7375 2.25359 25.2231C2.03993 25.7087 1.88211 26.1433 1.78014 26.5269C1.67817 26.9105 1.61747 27.2213 1.59804 27.4592C1.57862 27.6972 1.56891 27.821 1.56891 27.8307C1.56891 28.0347 1.64175 28.2095 1.78742 28.3552C1.9331 28.5008 2.11277 28.5737 2.32643 28.5737H26.1883C26.3922 28.5737 26.567 28.5008 26.7127 28.3552C26.8584 28.2095 26.9312 28.0347 26.9312 27.8307C26.9312 27.821 26.9215 27.6972 26.9021 27.4592C26.8826 27.2213 26.8219 26.9105 26.72 26.5269C26.618 26.1433 26.4626 25.7087 26.2538 25.2231C26.045 24.7375 25.7464 24.2422 25.3579 23.7372C24.8432 23.0671 24.2192 22.4747 23.486 21.96C22.7527 21.4452 21.9175 21.0155 20.9803 20.6707C20.0431 20.3259 19.0137 20.0662 17.892 19.8913C16.7703 19.7165 15.5587 19.6291 14.2573 19.6291Z" fill="black"/>
</svg>
