<svg width="40" height="41" viewBox="0 0 40 41" fill="none" xmlns="http://www.w3.org/2000/svg">
<path d="M26.9927 18.9456C26.3026 18.9456 25.6548 18.8153 25.0493 18.5549C24.4438 18.2945 23.9165 17.9364 23.4673 17.4807C23.0181 17.025 22.66 16.4944 22.3931 15.8889C22.1261 15.2834 21.9927 14.6357 21.9927 13.9456C21.9927 13.2555 22.1261 12.6077 22.3931 12.0022C22.66 11.3967 23.0181 10.8661 23.4673 10.4104C23.9165 9.95467 24.4438 9.5966 25.0493 9.33618C25.6548 9.07577 26.3026 8.94556 26.9927 8.94556C27.6828 8.94556 28.3338 9.07577 28.9458 9.33618C29.5578 9.5966 30.0884 9.95467 30.5376 10.4104C30.9868 10.8661 31.3416 11.3967 31.6021 12.0022C31.8625 12.6077 31.9927 13.2555 31.9927 13.9456C31.9927 14.6357 31.8625 15.2834 31.6021 15.8889C31.3416 16.4944 30.9868 17.025 30.5376 17.4807C30.0884 17.9364 29.5578 18.2945 28.9458 18.5549C28.3338 18.8153 27.6828 18.9456 26.9927 18.9456ZM26.9927 10.9377C26.1724 10.9377 25.4692 11.2307 24.8833 11.8167C24.2974 12.4026 24.0044 13.1122 24.0044 13.9456C24.0044 14.7789 24.2974 15.4885 24.8833 16.0745C25.4692 16.6604 26.1724 16.9534 26.9927 16.9534C27.826 16.9534 28.5356 16.6604 29.1216 16.0745C29.7075 15.4885 30.0005 14.7789 30.0005 13.9456C30.0005 13.1122 29.7075 12.4026 29.1216 11.8167C28.5356 11.2307 27.826 10.9377 26.9927 10.9377ZM0.996582 40.9377C0.866374 40.9377 0.739421 40.915 0.615723 40.8694C0.492025 40.8238 0.384603 40.7489 0.293457 40.6448C0.150228 40.5146 0.059082 40.3551 0.0200195 40.1663C-0.019043 39.9775 -0.00602213 39.7919 0.059082 39.6096C0.827311 37.4872 1.60531 35.6318 2.39307 34.0432C3.18083 32.4547 3.97835 31.1265 4.78564 30.0588C5.59294 28.9911 6.40348 28.1903 7.21729 27.6565C8.03109 27.1226 8.84814 26.8557 9.66846 26.8557C10.2153 26.8557 10.7427 26.9696 11.2505 27.1975C11.7583 27.4254 12.2466 27.7737 12.7153 28.2424C13.4445 28.9716 13.8677 29.678 13.9849 30.3616C14.1021 31.0452 14.1086 31.6278 14.0044 32.1096C13.8351 32.8648 13.4445 33.6135 12.8325 34.3557C12.2205 35.0979 11.384 35.8368 10.3228 36.5725C9.26156 37.3082 7.98226 38.0341 6.48486 38.7502C4.98747 39.4664 3.27523 40.176 1.34814 40.8792C1.28304 40.9052 1.22445 40.9215 1.17236 40.928C1.12028 40.9345 1.06169 40.9377 0.996582 40.9377ZM9.66846 28.8479C9.17367 28.8479 8.64307 29.0627 8.07666 29.4924C7.51025 29.9221 6.92106 30.5471 6.30908 31.3674C6.0096 31.7711 5.71012 32.217 5.41064 32.7053C5.11117 33.1936 4.81169 33.7242 4.51221 34.2971C4.21273 34.87 3.9165 35.482 3.62354 36.1331C3.33057 36.7841 3.03434 37.4807 2.73486 38.2229C3.39893 37.9495 4.03369 37.676 4.63916 37.4026C5.24463 37.1292 5.81429 36.859 6.34814 36.592C6.882 36.3251 7.38005 36.0549 7.84229 35.7815C8.30452 35.5081 8.73096 35.2346 9.12158 34.9612C10.1893 34.232 10.925 33.5875 11.3286 33.0276C11.7323 32.4677 11.9731 32.0185 12.0513 31.6799C12.1294 31.3284 12.1066 30.9866 11.9829 30.6545C11.8592 30.3225 11.6281 29.9872 11.2896 29.6487C11.0161 29.3752 10.7459 29.1734 10.479 29.0432C10.2121 28.913 9.94189 28.8479 9.66846 28.8479ZM39.0044 0.937744C37.7023 0.937744 36.4393 0.993084 35.2153 1.10376C33.9914 1.21444 32.8065 1.38045 31.6606 1.60181C30.5148 1.82316 29.4048 2.0966 28.3306 2.42212C27.2563 2.74764 26.231 3.12524 25.2544 3.55493C24.4471 3.91951 23.6659 4.31665 22.9106 4.74634C22.1554 5.17603 21.4328 5.63826 20.7427 6.13306C20.0526 6.62785 19.395 7.1617 18.77 7.73462C18.145 8.30754 17.5526 8.90649 16.9927 9.53149C16.7843 9.76587 16.5858 10.0035 16.397 10.2444C16.2082 10.4853 16.0226 10.7229 15.8403 10.9573C14.981 11.0224 14.1118 11.2242 13.2329 11.5627C12.354 11.9013 11.4718 12.3831 10.5864 13.0081C9.84424 13.5289 9.10205 14.1506 8.35986 14.8733C7.61768 15.5959 6.87549 16.413 6.1333 17.3245C5.52132 18.0797 4.97119 18.8219 4.48291 19.551C3.99463 20.2802 3.57471 20.9312 3.22314 21.5042C2.87158 22.0771 2.6014 22.5458 2.4126 22.9104C2.2238 23.275 2.12288 23.4703 2.10986 23.4963C1.99268 23.7177 1.96338 23.9456 2.02197 24.1799C2.08057 24.4143 2.21403 24.6031 2.42236 24.7463C2.50049 24.8114 2.59163 24.8603 2.6958 24.8928C2.79997 24.9254 2.90413 24.9417 3.0083 24.9417C3.12549 24.9417 3.24593 24.9189 3.36963 24.8733C3.49333 24.8277 3.60726 24.7528 3.71143 24.6487C3.71143 24.6487 3.93929 24.4534 4.39502 24.0627C4.85075 23.6721 5.48877 23.2424 6.30908 22.7737C6.6346 22.5914 7.01221 22.3993 7.44189 22.1975C7.87158 21.9957 8.33382 21.8101 8.82861 21.6409C9.32341 21.4716 9.85726 21.3284 10.4302 21.2112C11.0031 21.094 11.6021 21.0159 12.2271 20.9768C12.3833 21.3805 12.6047 21.7971 12.8911 22.2268C13.1776 22.6565 13.4803 23.0699 13.7993 23.467C14.1183 23.8642 14.4341 24.232 14.7466 24.5706C15.0591 24.9091 15.326 25.189 15.5474 25.4104C15.7687 25.6187 16.0454 25.8792 16.3774 26.1917C16.7095 26.5042 17.0741 26.8232 17.4712 27.1487C17.8683 27.4742 18.285 27.7769 18.7212 28.0569C19.1574 28.3368 19.5773 28.5614 19.981 28.7307C19.9419 29.3557 19.8605 29.9514 19.7368 30.5178C19.6131 31.0842 19.4666 31.6181 19.2974 32.1194C19.1281 32.6207 18.9458 33.0829 18.7505 33.5061C18.5552 33.9293 18.3599 34.3101 18.1646 34.6487C17.7088 35.456 17.2856 36.0875 16.895 36.5432C16.5044 36.9989 16.3026 37.2333 16.2896 37.2463C16.1203 37.4156 16.0259 37.6207 16.0063 37.8616C15.9868 38.1025 16.0487 38.3271 16.1919 38.5354C16.283 38.6656 16.4002 38.7665 16.5435 38.8381C16.6867 38.9097 16.8364 38.9456 16.9927 38.9456C17.0708 38.9456 17.1489 38.9358 17.2271 38.9163C17.3052 38.8967 17.3768 38.8739 17.4419 38.8479C17.481 38.8219 17.6795 38.7144 18.0376 38.5256C18.3957 38.3368 18.8644 38.0699 19.4438 37.7249C20.0233 37.3798 20.6743 36.9599 21.397 36.4651C22.1196 35.9703 22.8651 35.4169 23.6333 34.8049C24.5317 34.0758 25.3423 33.3368 26.0649 32.5881C26.7876 31.8394 27.4159 31.094 27.9497 30.3518C28.5617 29.4664 29.0402 28.5875 29.3853 27.7151C29.7303 26.8427 29.9289 25.9703 29.981 25.0979C30.2153 24.9286 30.453 24.7463 30.6938 24.551C30.9347 24.3557 31.1724 24.1539 31.4067 23.9456C32.0448 23.3857 32.647 22.7932 33.2134 22.1682C33.7798 21.5432 34.3136 20.8857 34.8149 20.1956C35.3162 19.5055 35.7817 18.7861 36.2114 18.0374C36.6411 17.2887 37.0317 16.5042 37.3833 15.6838C37.813 14.7073 38.1938 13.6851 38.5259 12.6174C38.8579 11.5497 39.1313 10.4397 39.3462 9.28735C39.561 8.13501 39.7238 6.94686 39.8345 5.7229C39.9451 4.49894 40.0005 3.24243 40.0005 1.95337V0.937744H39.0044ZM6.21143 20.5667C6.6932 19.8765 7.23031 19.1604 7.82275 18.4182C8.4152 17.676 9.05648 16.9696 9.74658 16.2991C10.4367 15.6285 11.1659 15.0263 11.9341 14.4924C12.7023 13.9586 13.4966 13.5549 14.3169 13.2815C13.9914 13.8544 13.7049 14.4111 13.4575 14.9514C13.2101 15.4918 12.9953 16.0028 12.813 16.4846C12.6307 16.9664 12.4842 17.4189 12.3735 17.842C12.2629 18.2652 12.175 18.6396 12.1099 18.9651C10.951 19.0432 9.87679 19.232 8.88721 19.5315C7.89762 19.831 7.0057 20.176 6.21143 20.5667ZM20.3911 34.7268C20.7687 33.9325 21.1105 33.0406 21.4165 32.051C21.7225 31.0614 21.908 29.9937 21.9731 28.8479C22.2987 28.7828 22.673 28.6917 23.0962 28.5745C23.5194 28.4573 23.9751 28.3075 24.4634 28.1252C24.9517 27.943 25.4627 27.7281 25.9966 27.4807C26.5304 27.2333 27.0838 26.9469 27.6567 26.6213C27.3833 27.4417 26.9829 28.2359 26.4556 29.0042C25.9282 29.7724 25.3293 30.5015 24.6587 31.1917C23.9881 31.8818 23.2817 32.523 22.5396 33.1155C21.7974 33.7079 21.0812 34.245 20.3911 34.7268ZM30.0981 22.4417C29.0565 23.3661 28.0246 24.1181 27.0024 24.6975C25.9803 25.2769 25.0526 25.7327 24.2192 26.0647C23.3859 26.3967 22.6795 26.6278 22.1001 26.7581C21.5207 26.8883 21.1528 26.9534 20.9966 26.9534C20.9966 26.9534 20.8827 26.9176 20.6548 26.8459C20.4269 26.7743 20.033 26.5432 19.4731 26.1526C19.0955 25.8922 18.6886 25.5732 18.2524 25.1956C17.8162 24.818 17.3833 24.4143 16.9536 23.9846C16.5239 23.5549 16.1235 23.1252 15.7524 22.6956C15.3813 22.2659 15.0591 21.8557 14.7856 21.4651C14.395 20.9182 14.1672 20.5276 14.1021 20.2932C14.0369 20.0588 14.0044 19.9417 14.0044 19.9417C14.0044 19.7854 14.0662 19.4208 14.1899 18.8479C14.3136 18.275 14.5415 17.5686 14.8735 16.7288C15.2056 15.8889 15.6646 14.9612 16.2505 13.9456C16.8364 12.9299 17.5851 11.9013 18.4966 10.8596C19.6034 9.60962 20.8468 8.5061 22.2271 7.54907C23.6073 6.59204 25.1144 5.78149 26.7485 5.11743C28.3827 4.45337 30.1405 3.93904 32.022 3.57446C33.9035 3.20988 35.8924 3.00154 37.9888 2.94946C37.9367 5.04582 37.7284 7.03475 37.3638 8.91626C36.9992 10.7978 36.4849 12.5588 35.8208 14.1995C35.1567 15.8401 34.3462 17.3505 33.3892 18.7307C32.4321 20.1109 31.3351 21.3479 30.0981 22.4417Z" fill="#FCB800"/>
</svg>
