<svg width="30" height="30" viewBox="0 0 30 30" fill="none" xmlns="http://www.w3.org/2000/svg">
<path d="M26.1882 9.03438H3.81229C3.60834 9.03438 3.43353 8.96154 3.28785 8.81586C3.14217 8.67019 3.06934 8.49537 3.06934 8.29143C3.06934 8.07777 3.14217 7.8981 3.28785 7.75242C3.43353 7.60674 3.60834 7.53391 3.81229 7.53391H26.1882C26.3922 7.53391 26.567 7.60674 26.7126 7.75242C26.8583 7.8981 26.9312 8.07777 26.9312 8.29143C26.9312 8.49537 26.8583 8.67019 26.7126 8.81586C26.567 8.96154 26.3922 9.03438 26.1882 9.03438ZM26.1882 16.493H3.81229C3.60834 16.493 3.43353 16.4202 3.28785 16.2745C3.14217 16.1288 3.06934 15.954 3.06934 15.7501C3.06934 15.5364 3.14217 15.3567 3.28785 15.2111C3.43353 15.0654 3.60834 14.9925 3.81229 14.9925H26.1882C26.3922 14.9925 26.567 15.0654 26.7126 15.2111C26.8583 15.3567 26.9312 15.5364 26.9312 15.7501C26.9312 15.954 26.8583 16.1288 26.7126 16.2745C26.567 16.4202 26.3922 16.493 26.1882 16.493ZM26.1882 23.9517H3.81229C3.60834 23.9517 3.43353 23.8788 3.28785 23.7331C3.14217 23.5875 3.06934 23.4127 3.06934 23.2087C3.06934 22.9951 3.14217 22.8154 3.28785 22.6697C3.43353 22.524 3.60834 22.4512 3.81229 22.4512H26.1882C26.3922 22.4512 26.567 22.524 26.7126 22.6697C26.8583 22.8154 26.9312 22.9951 26.9312 23.2087C26.9312 23.4127 26.8583 23.5875 26.7126 23.7331C26.567 23.8788 26.3922 23.9517 26.1882 23.9517Z" fill="black"/>
</svg>
