<svg width="29" height="26" viewBox="0 0 29 26" fill="none" xmlns="http://www.w3.org/2000/svg">
<path d="M14.2569 25.8638C14.1889 25.8638 14.1257 25.8565 14.0675 25.8419C14.0092 25.8274 13.9509 25.8055 13.8927 25.7764C13.8538 25.7569 13.6353 25.6283 13.2371 25.3903C12.8389 25.1524 12.3218 24.8198 11.6857 24.3924C11.0495 23.9651 10.3284 23.4455 9.52236 22.8337C8.71629 22.2219 7.89079 21.5372 7.04586 20.7797C6.54085 20.3232 6.06497 19.8667 5.61823 19.4103C5.17149 18.9538 4.74903 18.4974 4.35084 18.0409C3.95266 17.5845 3.58119 17.1256 3.23642 16.6643C2.89165 16.203 2.57845 15.7441 2.2968 15.2876C1.92776 14.7049 1.60484 14.1198 1.32805 13.5322C1.05127 12.9447 0.820614 12.362 0.636091 11.7841C0.451567 11.2063 0.313174 10.6284 0.220912 10.0506C0.12865 9.47272 0.0825195 8.90216 0.0825195 8.33887C0.0825195 7.26087 0.288895 6.24599 0.701645 5.29423C1.1144 4.34248 1.67525 3.51212 2.38421 2.80316C3.09317 2.0942 3.9211 1.53335 4.868 1.1206C5.81489 0.707848 6.8322 0.501472 7.91992 0.501472C8.27926 0.501472 8.64588 0.535465 9.01978 0.603447C9.39368 0.671429 9.76516 0.770975 10.1342 0.902084C10.5033 1.03319 10.8699 1.19344 11.2341 1.38282C11.5983 1.5722 11.9503 1.79314 12.2902 2.04564C12.6884 2.337 13.0526 2.65506 13.3828 2.99983C13.713 3.34459 14.0043 3.7015 14.2569 4.07055C14.4996 3.7015 14.7886 3.34459 15.1236 2.99983C15.4587 2.65506 15.8253 2.337 16.2235 2.04564C16.5634 1.79314 16.913 1.5722 17.2724 1.38282C17.6317 1.19344 17.9959 1.03319 18.3649 0.902084C18.734 0.770975 19.1055 0.671429 19.4794 0.603447C19.8533 0.535465 20.2247 0.501472 20.5938 0.501472C21.6718 0.501472 22.6867 0.707848 23.6384 1.1206C24.5902 1.53335 25.4205 2.0942 26.1295 2.80316C26.8385 3.51212 27.3993 4.34248 27.8121 5.29423C28.2248 6.24599 28.4312 7.26087 28.4312 8.33887C28.4312 8.90216 28.3826 9.47272 28.2855 10.0506C28.1884 10.6284 28.0476 11.2063 27.863 11.7841C27.6785 12.362 27.4503 12.9447 27.1784 13.5322C26.9064 14.1198 26.5859 14.7049 26.2169 15.2876C25.9255 15.7441 25.6099 16.203 25.27 16.6643C24.9301 17.1256 24.561 17.5845 24.1629 18.0409C23.7647 18.4974 23.3398 18.9538 22.8882 19.4103C22.4366 19.8667 21.9631 20.3232 21.4678 20.7797C20.6229 21.5372 19.7974 22.2219 18.9913 22.8337C18.1853 23.4455 17.4642 23.9651 16.828 24.3924C16.1919 24.8198 15.6723 25.1524 15.2693 25.3903C14.8663 25.6283 14.6502 25.7569 14.621 25.7764C14.5628 25.8055 14.5021 25.8274 14.4389 25.8419C14.3758 25.8565 14.3151 25.8638 14.2569 25.8638ZM7.91992 2.00194C7.04586 2.00194 6.22279 2.16704 5.4507 2.49724C4.67862 2.82744 4.00608 3.27904 3.43308 3.85204C2.86009 4.42503 2.40606 5.09757 2.07101 5.86966C1.73595 6.64174 1.56842 7.46482 1.56842 8.33887C1.56842 9.47515 1.76751 10.5774 2.16569 11.6457C2.56388 12.714 3.07375 13.7313 3.6953 14.6977C4.31685 15.664 5.00882 16.5647 5.77119 17.4C6.53357 18.2352 7.2838 18.983 8.02189 19.6434C8.67258 20.2455 9.32084 20.7967 9.96668 21.2968C10.6125 21.797 11.2122 22.2413 11.7658 22.6297C12.3194 23.0182 12.8122 23.3508 13.2444 23.6276C13.6766 23.9044 14.0141 24.1157 14.2569 24.2613C14.4899 24.1157 14.8226 23.9044 15.2547 23.6276C15.6869 23.3508 16.1822 23.0182 16.7406 22.6297C17.2991 22.2413 17.8988 21.797 18.5397 21.2968C19.1807 20.7967 19.8314 20.2455 20.4918 19.6434C21.2202 18.983 21.968 18.2352 22.7352 17.4C23.5025 16.5647 24.1969 15.664 24.8184 14.6977C25.44 13.7313 25.9474 12.714 26.3407 11.6457C26.7341 10.5774 26.9307 9.47515 26.9307 8.33887C26.9307 7.46482 26.7656 6.64174 26.4354 5.86966C26.1052 5.09757 25.6512 4.42503 25.0733 3.85204C24.4955 3.27904 23.823 2.82744 23.0557 2.49724C22.2885 2.16704 21.4678 2.00194 20.5938 2.00194C19.9625 2.00194 19.3434 2.11848 18.7364 2.35157C18.1294 2.58465 17.571 2.89057 17.0611 3.26933C16.5513 3.64809 16.1118 4.07541 15.7428 4.55128C15.3737 5.02716 15.1115 5.49818 14.9561 5.96435C14.9075 6.11002 14.8177 6.23142 14.6866 6.32854C14.5555 6.42566 14.4122 6.47421 14.2569 6.47421C14.0918 6.47421 13.9436 6.42566 13.8125 6.32854C13.6814 6.23142 13.5916 6.11002 13.543 5.96435C13.3876 5.49818 13.1254 5.02716 12.7564 4.55128C12.3873 4.07541 11.9503 3.64809 11.4453 3.26933C10.9403 2.89057 10.3843 2.58465 9.7773 2.35157C9.17031 2.11848 8.55119 2.00194 7.91992 2.00194Z" fill="black"/>
</svg>
